<svg id="visual" viewBox="0 0 900 600" width="900" height="600" xmlns="http://www.w3.org/2000/svg" xmlns:xlink="http://www.w3.org/1999/xlink" version="1.1"><g stroke-width="1" stroke-linejoin="bevel"><path d="M483 319L493 411L602 336Z" fill="#081729" stroke="#081729"></path><path d="M493 411L593 435L602 336Z" fill="#081729" stroke="#081729"></path><path d="M471 499L628 464L593 435Z" fill="#332249" stroke="#332249"></path><path d="M593 435L684 429L602 336Z" fill="#841e4b" stroke="#841e4b"></path><path d="M411 500L471 499L493 411Z" fill="#47234f" stroke="#47234f"></path><path d="M493 411L471 499L593 435Z" fill="#951f43" stroke="#951f43"></path><path d="M602 336L514 202L483 319Z" fill="#332249" stroke="#332249"></path><path d="M514 202L393 292L483 319Z" fill="#841e4b" stroke="#841e4b"></path><path d="M483 319L366 434L493 411Z" fill="#841e4b" stroke="#841e4b"></path><path d="M628 464L684 429L593 435Z" fill="#712050" stroke="#712050"></path><path d="M602 336L586 176L514 202Z" fill="#121c35" stroke="#121c35"></path><path d="M393 292L366 434L483 319Z" fill="#332249" stroke="#332249"></path><path d="M366 434L411 500L493 411Z" fill="#00101c" stroke="#00101c"></path><path d="M720 270L586 176L602 336Z" fill="#5c2251" stroke="#5c2251"></path><path d="M684 429L720 270L602 336Z" fill="#a32638" stroke="#a32638"></path><path d="M628 464L718 462L684 429Z" fill="#951f43" stroke="#951f43"></path><path d="M684 429L783 289L720 270Z" fill="#a32638" stroke="#a32638"></path><path d="M712 600L718 462L628 464Z" fill="#5c2251" stroke="#5c2251"></path><path d="M397 116L392 171L514 202Z" fill="#951f43" stroke="#951f43"></path><path d="M514 202L392 171L393 292Z" fill="#47234f" stroke="#47234f"></path><path d="M393 292L275 322L366 434Z" fill="#212040" stroke="#212040"></path><path d="M437 600L507 600L471 499Z" fill="#47234f" stroke="#47234f"></path><path d="M471 499L598 600L628 464Z" fill="#081729" stroke="#081729"></path><path d="M718 181L611 123L586 176Z" fill="#081729" stroke="#081729"></path><path d="M586 176L511 67L514 202Z" fill="#47234f" stroke="#47234f"></path><path d="M507 600L598 600L471 499Z" fill="#212040" stroke="#212040"></path><path d="M392 171L335 214L393 292Z" fill="#00101c" stroke="#00101c"></path><path d="M720 270L718 181L586 176Z" fill="#841e4b" stroke="#841e4b"></path><path d="M806 414L783 289L684 429Z" fill="#121c35" stroke="#121c35"></path><path d="M720 270L772 178L718 181Z" fill="#951f43" stroke="#951f43"></path><path d="M271 415L328 506L366 434Z" fill="#00101c" stroke="#00101c"></path><path d="M366 434L328 506L411 500Z" fill="#47234f" stroke="#47234f"></path><path d="M411 500L437 600L471 499Z" fill="#00101c" stroke="#00101c"></path><path d="M328 506L437 600L411 500Z" fill="#841e4b" stroke="#841e4b"></path><path d="M335 214L275 322L393 292Z" fill="#121c35" stroke="#121c35"></path><path d="M275 322L271 415L366 434Z" fill="#a32638" stroke="#a32638"></path><path d="M812 521L806 414L718 462Z" fill="#47234f" stroke="#47234f"></path><path d="M718 462L806 414L684 429Z" fill="#081729" stroke="#081729"></path><path d="M511 67L397 116L514 202Z" fill="#332249" stroke="#332249"></path><path d="M392 171L322 107L335 214Z" fill="#951f43" stroke="#951f43"></path><path d="M560 0L511 67L611 123Z" fill="#212040" stroke="#212040"></path><path d="M611 123L511 67L586 176Z" fill="#081729" stroke="#081729"></path><path d="M783 289L772 178L720 270Z" fill="#00101c" stroke="#00101c"></path><path d="M718 181L672 78L611 123Z" fill="#121c35" stroke="#121c35"></path><path d="M900 191L772 178L783 289Z" fill="#00101c" stroke="#00101c"></path><path d="M598 600L712 600L628 464Z" fill="#212040" stroke="#212040"></path><path d="M760 129L672 78L718 181Z" fill="#00101c" stroke="#00101c"></path><path d="M712 600L812 521L718 462Z" fill="#212040" stroke="#212040"></path><path d="M772 178L760 129L718 181Z" fill="#a32638" stroke="#a32638"></path><path d="M335 214L218 315L275 322Z" fill="#00101c" stroke="#00101c"></path><path d="M275 322L218 315L271 415Z" fill="#121c35" stroke="#121c35"></path><path d="M181 170L218 315L335 214Z" fill="#841e4b" stroke="#841e4b"></path><path d="M218 315L219 426L271 415Z" fill="#5c2251" stroke="#5c2251"></path><path d="M271 415L229 485L328 506Z" fill="#212040" stroke="#212040"></path><path d="M328 506L298 600L437 600Z" fill="#212040" stroke="#212040"></path><path d="M433 0L322 107L397 116Z" fill="#081729" stroke="#081729"></path><path d="M397 116L322 107L392 171Z" fill="#00101c" stroke="#00101c"></path><path d="M219 426L229 485L271 415Z" fill="#081729" stroke="#081729"></path><path d="M229 485L298 600L328 506Z" fill="#841e4b" stroke="#841e4b"></path><path d="M672 78L560 0L611 123Z" fill="#47234f" stroke="#47234f"></path><path d="M511 67L433 0L397 116Z" fill="#5c2251" stroke="#5c2251"></path><path d="M684 0L560 0L672 78Z" fill="#081729" stroke="#081729"></path><path d="M560 0L493 0L511 67Z" fill="#5c2251" stroke="#5c2251"></path><path d="M900 424L900 322L806 414Z" fill="#00101c" stroke="#00101c"></path><path d="M806 414L900 322L783 289Z" fill="#5c2251" stroke="#5c2251"></path><path d="M772 178L900 191L760 129Z" fill="#712050" stroke="#712050"></path><path d="M900 474L900 424L806 414Z" fill="#121c35" stroke="#121c35"></path><path d="M493 0L433 0L511 67Z" fill="#5c2251" stroke="#5c2251"></path><path d="M712 600L826 600L812 521Z" fill="#712050" stroke="#712050"></path><path d="M812 521L900 474L806 414Z" fill="#712050" stroke="#712050"></path><path d="M900 600L900 474L812 521Z" fill="#121c35" stroke="#121c35"></path><path d="M789 0L672 78L760 129Z" fill="#a32638" stroke="#a32638"></path><path d="M789 0L684 0L672 78Z" fill="#841e4b" stroke="#841e4b"></path><path d="M900 322L900 191L783 289Z" fill="#712050" stroke="#712050"></path><path d="M214 117L181 170L335 214Z" fill="#332249" stroke="#332249"></path><path d="M93 516L229 485L219 426Z" fill="#081729" stroke="#081729"></path><path d="M214 117L335 214L322 107Z" fill="#47234f" stroke="#47234f"></path><path d="M292 0L214 117L322 107Z" fill="#841e4b" stroke="#841e4b"></path><path d="M826 600L900 600L812 521Z" fill="#332249" stroke="#332249"></path><path d="M433 0L292 0L322 107Z" fill="#121c35" stroke="#121c35"></path><path d="M900 76L789 0L760 129Z" fill="#841e4b" stroke="#841e4b"></path><path d="M93 516L163 600L229 485Z" fill="#712050" stroke="#712050"></path><path d="M229 485L163 600L298 600Z" fill="#121c35" stroke="#121c35"></path><path d="M66 434L219 426L218 315Z" fill="#121c35" stroke="#121c35"></path><path d="M900 191L900 76L760 129Z" fill="#332249" stroke="#332249"></path><path d="M123 73L95 228L181 170Z" fill="#47234f" stroke="#47234f"></path><path d="M181 170L95 228L218 315Z" fill="#712050" stroke="#712050"></path><path d="M123 73L181 170L214 117Z" fill="#081729" stroke="#081729"></path><path d="M66 434L93 516L219 426Z" fill="#5c2251" stroke="#5c2251"></path><path d="M95 228L68 302L218 315Z" fill="#5c2251" stroke="#5c2251"></path><path d="M68 302L66 434L218 315Z" fill="#47234f" stroke="#47234f"></path><path d="M0 211L0 332L68 302Z" fill="#081729" stroke="#081729"></path><path d="M162 0L123 73L214 117Z" fill="#00101c" stroke="#00101c"></path><path d="M900 76L900 0L789 0Z" fill="#5c2251" stroke="#5c2251"></path><path d="M0 600L80 600L93 516Z" fill="#a32638" stroke="#a32638"></path><path d="M93 516L80 600L163 600Z" fill="#a32638" stroke="#a32638"></path><path d="M292 0L162 0L214 117Z" fill="#a32638" stroke="#a32638"></path><path d="M0 211L68 302L95 228Z" fill="#951f43" stroke="#951f43"></path><path d="M68 302L0 332L66 434Z" fill="#00101c" stroke="#00101c"></path><path d="M66 434L0 467L93 516Z" fill="#47234f" stroke="#47234f"></path><path d="M0 332L0 429L66 434Z" fill="#951f43" stroke="#951f43"></path><path d="M0 429L0 467L66 434Z" fill="#212040" stroke="#212040"></path><path d="M0 79L0 211L95 228Z" fill="#712050" stroke="#712050"></path><path d="M0 79L95 228L123 73Z" fill="#951f43" stroke="#951f43"></path><path d="M162 0L97 0L123 73Z" fill="#841e4b" stroke="#841e4b"></path><path d="M0 467L0 600L93 516Z" fill="#5c2251" stroke="#5c2251"></path><path d="M97 0L0 79L123 73Z" fill="#5c2251" stroke="#5c2251"></path><path d="M97 0L0 0L0 79Z" fill="#47234f" stroke="#47234f"></path></g></svg>